<svg width="26" height="23" viewBox="0 0 26 23" fill="none" xmlns="http://www.w3.org/2000/svg">
<path d="M25.538 21.2196L23.8715 6.21957C23.8336 5.87548 23.67 5.55751 23.412 5.32664C23.1541 5.09577 22.82 4.96827 22.4738 4.96859H18.1343C18.0175 3.68774 17.426 2.49683 16.4761 1.62967C15.5263 0.762511 14.2865 0.281738 13.0004 0.281738C11.7142 0.281738 10.4745 0.762511 9.52457 1.62967C8.57468 2.49683 7.98325 3.68774 7.86637 4.96859H3.52692C3.18075 4.96827 2.84665 5.09577 2.5887 5.32664C2.33076 5.55751 2.16714 5.87548 2.12922 6.21957L0.4627 21.2196C0.440864 21.4161 0.460731 21.6151 0.521006 21.8034C0.581281 21.9918 0.680606 22.1653 0.812498 22.3127C0.94439 22.46 1.10588 22.5779 1.28643 22.6586C1.46697 22.7394 1.66251 22.7811 1.86028 22.7811H24.1403C24.3381 22.7811 24.5336 22.7394 24.7142 22.6587C24.8948 22.578 25.0563 22.4601 25.1882 22.3127C25.3201 22.1654 25.4194 21.9918 25.4797 21.8035C25.54 21.6151 25.5599 21.4161 25.538 21.2196ZM13.0004 1.21859C14.0376 1.21998 15.0381 1.60294 15.8112 2.2945C16.5843 2.98607 17.0759 3.93789 17.1924 4.96859H8.80832C8.9248 3.93789 9.41643 2.98607 10.1895 2.2945C10.9626 1.60294 11.9631 1.21998 13.0004 1.21859ZM24.4897 21.6875C24.4459 21.7369 24.3922 21.7764 24.3319 21.8033C24.2717 21.8302 24.2064 21.844 24.1404 21.8436H1.86028C1.79436 21.8436 1.72918 21.8297 1.669 21.8028C1.60882 21.7759 1.55499 21.7366 1.51103 21.6874C1.46707 21.6383 1.43396 21.5805 1.41388 21.5177C1.39379 21.4549 1.38717 21.3886 1.39446 21.323L3.0611 6.32305C3.07374 6.20837 3.12828 6.1024 3.21424 6.02545C3.30021 5.94851 3.41155 5.90601 3.52692 5.90609H7.84411V9.18734C7.84411 9.31166 7.89349 9.43089 7.9814 9.5188C8.06931 9.60671 8.18854 9.65609 8.31286 9.65609C8.43718 9.65609 8.55641 9.60671 8.64431 9.5188C8.73222 9.43089 8.78161 9.31166 8.78161 9.18734V5.90609H17.2191V9.18734C17.2191 9.31166 17.2685 9.43089 17.3564 9.5188C17.4443 9.60671 17.5635 9.65609 17.6879 9.65609C17.8122 9.65609 17.9314 9.60671 18.0193 9.5188C18.1072 9.43089 18.1566 9.31166 18.1566 9.18734V5.90609H22.4738C22.5892 5.90601 22.7005 5.94851 22.7865 6.02545C22.8724 6.1024 22.927 6.20837 22.9396 6.32305L24.6063 21.323C24.6139 21.3886 24.6075 21.455 24.5873 21.5179C24.5672 21.5807 24.5339 21.6386 24.4897 21.6875Z" fill="white"/>
</svg>
