<svg width="16" height="16" viewBox="0 0 16 16" fill="none" xmlns="http://www.w3.org/2000/svg">
<path d="M14.9489 14.5512L11.7239 11.3262C12.8154 10.131 13.3957 8.55616 13.3407 6.93854C13.2857 5.32092 12.5998 3.78907 11.4297 2.67075C10.2597 1.55244 8.69835 0.936506 7.0799 0.954739C5.46145 0.972973 3.91441 1.62393 2.76982 2.76832C1.62523 3.9127 0.974004 5.45962 0.955484 7.07807C0.936965 8.69652 1.55263 10.2579 2.67073 11.4282C3.78883 12.5985 5.32057 13.2847 6.93818 13.3399C8.55578 13.3952 10.1308 12.8152 11.3261 11.7239L14.5512 14.949C14.6039 15.0017 14.6755 15.0314 14.7501 15.0313C14.8247 15.0313 14.8962 15.0017 14.9489 14.9489C15.0017 14.8962 15.0313 14.8246 15.0313 14.75C15.0313 14.6754 15.0016 14.6039 14.9489 14.5512ZM1.53175 7.15627C1.53175 6.04375 1.86165 4.95621 2.47974 4.03118C3.09782 3.10616 3.97632 2.38519 5.00416 1.95944C6.03199 1.5337 7.16299 1.42231 8.25413 1.63935C9.34528 1.85639 10.3476 2.39212 11.1342 3.17879C11.9209 3.96546 12.4566 4.96774 12.6737 6.05888C12.8907 7.15003 12.7793 8.28103 12.3536 9.30886C11.9278 10.3367 11.2069 11.2152 10.2818 11.8333C9.35681 12.4514 8.26927 12.7813 7.15675 12.7813C5.66542 12.7796 4.23566 12.1864 3.18113 11.1319C2.1266 10.0774 1.53343 8.6476 1.53175 7.15627Z" fill="white"/>
</svg>
